<svg width="70" height="70" viewBox="0 0 70 70" fill="none" xmlns="http://www.w3.org/2000/svg">
<rect y="-0.00012207" width="70" height="70" rx="35" fill="#1B1E22"/>
<g clip-path="url(#clip0_1166_903)">
<path d="M29.6667 34.9999H27C25.5293 34.9999 24.3333 36.1959 24.3333 37.6665V40.3332C24.3333 41.8039 25.5293 42.9999 27 42.9999H29.6667C31.1373 42.9999 32.3333 41.8039 32.3333 40.3332V37.6665C32.3333 36.1959 31.1373 34.9999 29.6667 34.9999ZM27 40.3332V37.6665H29.6667V40.3332H27ZM44.3333 21.6665H43V20.3332C43 19.5972 42.404 18.9999 41.6667 18.9999C40.9293 18.9999 40.3333 19.5972 40.3333 20.3332V21.6665H29.6667V20.3332C29.6667 19.5972 29.0707 18.9999 28.3333 18.9999C27.596 18.9999 27 19.5972 27 20.3332V21.6665H25.6667C21.9907 21.6665 19 24.6572 19 28.3332V44.3332C19 48.0092 21.9907 50.9999 25.6667 50.9999H44.3333C48.0093 50.9999 51 48.0092 51 44.3332V28.3332C51 24.6572 48.0093 21.6665 44.3333 21.6665ZM25.6667 24.3332H44.3333C46.5387 24.3332 48.3333 26.1279 48.3333 28.3332V29.6665H21.6667V28.3332C21.6667 26.1279 23.4613 24.3332 25.6667 24.3332ZM44.3333 48.3332H25.6667C23.4613 48.3332 21.6667 46.5385 21.6667 44.3332V32.3332H48.3333V44.3332C48.3333 46.5385 46.5387 48.3332 44.3333 48.3332Z" fill="#FABD00"/>
</g>
<defs>
<clipPath id="clip0_1166_903">
<rect width="32" height="32" fill="white" transform="translate(19 18.9999)"/>
</clipPath>
</defs>
</svg>
