<svg width="304" height="72" viewBox="0 0 304 72" fill="none" xmlns="http://www.w3.org/2000/svg">
<path d="M9.48926 64.2941V46.4346C9.48926 44.4701 10.1879 42.7883 11.5851 41.3893C12.9824 39.9903 14.6621 39.2908 16.6242 39.2908H59.4339C61.396 39.2908 63.0757 39.9903 64.4729 41.3893C65.8702 42.7883 66.5688 44.4701 66.5688 46.4346V64.2941H9.48926ZM27.3266 35.7189C22.3916 35.7189 18.185 33.9776 14.7067 30.495C11.2284 27.0124 9.48926 22.8006 9.48926 17.8595C9.48926 12.9183 11.2284 8.70649 14.7067 5.22389C18.185 1.7413 22.3916 0 27.3266 0H48.7315C53.6665 0 57.8731 1.7413 61.3514 5.22389C64.8297 8.70649 66.5688 12.9183 66.5688 17.8595C66.5688 22.8006 64.8297 27.0124 61.3514 30.495C57.8731 33.9776 53.6665 35.7189 48.7315 35.7189H27.3266ZM16.6242 57.1503H59.4339V46.4346H16.6242V57.1503ZM27.3266 28.5751H48.7315C51.7044 28.5751 54.2313 27.5333 56.3123 25.4497C58.3934 23.3661 59.4339 20.836 59.4339 17.8595C59.4339 14.8829 58.3934 12.3528 56.3123 10.2692C54.2313 8.18559 51.7044 7.14378 48.7315 7.14378H27.3266C24.3537 7.14378 21.8268 8.18559 19.7457 10.2692C17.6647 12.3528 16.6242 14.8829 16.6242 17.8595C16.6242 20.836 17.6647 23.3661 19.7457 25.4497C21.8268 27.5333 24.3537 28.5751 27.3266 28.5751ZM27.3266 21.4314C28.3374 21.4314 29.1847 21.089 29.8684 20.4044C30.5522 19.7198 30.8941 18.8715 30.8941 17.8595C30.8941 16.8474 30.5522 15.9991 29.8684 15.3145C29.1847 14.6299 28.3374 14.2876 27.3266 14.2876C26.3158 14.2876 25.4686 14.6299 24.7848 15.3145C24.101 15.9991 23.7591 16.8474 23.7591 17.8595C23.7591 18.8715 24.101 19.7198 24.7848 20.4044C25.4686 21.089 26.3158 21.4314 27.3266 21.4314ZM48.7315 21.4314C49.7422 21.4314 50.5895 21.089 51.2733 20.4044C51.9571 19.7198 52.2989 18.8715 52.2989 17.8595C52.2989 16.8474 51.9571 15.9991 51.2733 15.3145C50.5895 14.6299 49.7422 14.2876 48.7315 14.2876C47.7207 14.2876 46.8734 14.6299 46.1896 15.3145C45.5059 15.9991 45.164 16.8474 45.164 17.8595C45.164 18.8715 45.5059 19.7198 46.1896 20.4044C46.8734 21.089 47.7207 21.4314 48.7315 21.4314Z" fill="#111827"/>
<path d="M46.4462 71.8521C43.6132 71.7968 41.6904 70.817 39.7729 69.0008C37.0124 66.386 36.0455 63.5228 36.0455 60.0012V43.0211C34.5766 42.7826 24.6128 42.063 16.6101 40.6803C7.52962 39.3815 3.86435 37.5218 2.97423 36.4861C1.11055 34.3178 0.178711 31.7663 0.178711 28.8317V17.0931H6.06402V15.1367H11.2848V22.9624H6.06402V21.006H4.10225V28.8317C4.10225 30.9837 4.87061 32.826 6.40733 34.3585C7.13984 35.089 13.6474 36.8661 20.718 37.8662C28.4808 38.9641 36.8779 39.255 38.0073 39.255C39.1509 39.255 48.8244 38.9484 55.7429 37.6495C62.6614 36.3506 69.3173 33.7801 70.0396 33.0597C71.5763 31.5272 72.3447 29.6849 72.3447 27.5328V19.7072H70.3829V21.6636H66.4594V13.8379H70.3829V15.7943H76.2682V27.5328C76.2682 30.4675 75.9929 33.2484 73.4727 35.1873C69.3546 38.3557 66.1631 38.9277 58.986 40.4637C50.6845 42.2403 41.4771 42.7763 39.969 43.0211V60.0012C39.969 62.4468 40.8273 64.5255 42.5439 66.2373C44.2604 67.9492 46.4462 67.7391 46.4462 67.7391C46.4462 67.7391 49.2699 67.9492 50.9864 66.2373C52.703 64.5255 53.3009 62.4468 53.3009 60.0012V56.7242C52.1565 56.333 51.2165 55.6319 50.4809 54.6211C49.7452 53.6103 49.3774 52.469 49.3774 51.1974C49.3774 49.567 49.9495 48.1812 51.0939 47.04C52.2383 45.8987 53.6279 45.3281 55.2627 45.3281C56.8975 45.3281 58.2871 45.8987 59.4314 47.04C60.5758 48.1812 61.148 49.567 61.148 51.1974C61.148 52.469 60.7802 53.6103 60.0445 54.6211C59.3088 55.6319 58.3688 56.333 57.2244 56.7242V60.0012C57.2244 63.5228 55.982 66.5226 53.4971 69.0008C50.7261 71.2027 49.4153 71.91 46.4462 71.8521ZM55.2627 53.1538C55.8185 53.1538 56.2844 52.9663 56.6604 52.5913C57.0365 52.2163 57.2244 51.7517 57.2244 51.1974C57.2244 50.643 57.0365 50.1784 56.6604 49.8034C56.2844 49.4284 55.8185 49.2409 55.2627 49.2409C54.7068 49.2409 54.2409 49.4284 53.8649 49.8034C53.4889 50.1784 53.3009 50.643 53.3009 51.1974C53.3009 51.7517 53.4889 52.2163 53.8649 52.5913C54.2409 52.9663 54.7068 53.1538 55.2627 53.1538Z" fill="#B91C1C"/>
<rect x="13.2393" y="3.75" width="49.9424" height="28.3919" rx="14.1959" stroke="#111827" stroke-width="7.5"/>
<path d="M123.281 24.3357V30.0839H111.215V36.2937H120.243V41.8741H111.215V53.7902H104V24.3357H123.281Z" fill="#111827"/>
<path d="M134.287 48.2517H143.738V53.7902H127.073V24.3357H134.287V48.2517Z" fill="#111827"/>
<path d="M154.393 30.0839V36.042H164.055V41.5804H154.393V48.042H165.321V53.7902H147.179V24.3357H165.321V30.0839H154.393Z" fill="#111827"/>
<path d="M191.31 24.3357V30.0839H183.463V53.7902H176.249V30.0839H168.401V24.3357H191.31Z" fill="#111827"/>
<path d="M193.708 39.021C193.708 36.1119 194.34 33.5245 195.606 31.2587C196.872 28.965 198.63 27.1888 200.88 25.9301C203.158 24.6434 205.732 24 208.601 24C212.117 24 215.126 24.9231 217.629 26.7692C220.133 28.6154 221.806 31.1329 222.65 34.3217H214.718C214.128 33.0909 213.284 32.1538 212.187 31.5105C211.118 30.8671 209.895 30.5455 208.516 30.5455C206.294 30.5455 204.494 31.3147 203.116 32.8531C201.738 34.3916 201.049 36.4476 201.049 39.021C201.049 41.5944 201.738 43.6503 203.116 45.1888C204.494 46.7273 206.294 47.4965 208.516 47.4965C209.895 47.4965 211.118 47.1748 212.187 46.5315C213.284 45.8881 214.128 44.951 214.718 43.7203H222.65C221.806 46.9091 220.133 49.4266 217.629 51.2727C215.126 53.0909 212.117 54 208.601 54C205.732 54 203.158 53.3706 200.88 52.1119C198.63 50.8252 196.872 49.049 195.606 46.7832C194.34 44.5175 193.708 41.9301 193.708 39.021Z" fill="#111827"/>
<path d="M252.72 24.3357V53.7902H245.505V41.6643H234.283V53.7902H227.068V24.3357H234.283V35.8741H245.505V24.3357H252.72Z" fill="#111827"/>
<path d="M265.142 30.0839V36.042H274.804V41.5804H265.142V48.042H276.07V53.7902H257.928V24.3357H276.07V30.0839H265.142Z" fill="#111827"/>
<path d="M295.857 53.7902L289.698 42.6713H287.968V53.7902H280.753V24.3357H292.862C295.196 24.3357 297.179 24.7413 298.811 25.5524C300.47 26.3636 301.708 27.4825 302.523 28.9091C303.339 30.3077 303.747 31.8741 303.747 33.6084C303.747 35.5664 303.184 37.3147 302.059 38.8531C300.962 40.3916 299.331 41.4825 297.165 42.1259L304 53.7902H295.857ZM287.968 37.5944H292.44C293.762 37.5944 294.746 37.2727 295.393 36.6294C296.068 35.986 296.406 35.0769 296.406 33.9021C296.406 32.7832 296.068 31.9021 295.393 31.2587C294.746 30.6154 293.762 30.2937 292.44 30.2937H287.968V37.5944Z" fill="#111827"/>
</svg>
