<svg width="70" height="70" viewBox="0 0 70 70" fill="none" xmlns="http://www.w3.org/2000/svg">
<rect y="-0.00012207" width="70" height="70" rx="35" fill="#1B1E22"/>
<path d="M34.7474 17.9998C38.0392 17.9998 40.6695 18.8398 42.6381 20.5198C44.639 22.1998 45.6395 24.4948 45.6395 27.4048C45.6395 30.4348 44.6067 32.7148 42.5413 34.2448C40.4758 35.7748 37.7327 36.5398 34.3117 36.5398L34.1181 40.0948H29.3256L29.0836 33.0298H30.6811C33.8115 33.0298 36.1997 32.6398 37.8456 31.8598C39.5238 31.0798 40.3629 29.5948 40.3629 27.4048C40.3629 25.8148 39.8627 24.5698 38.8622 23.6698C37.894 22.7698 36.5386 22.3198 34.7958 22.3198C33.0531 22.3198 31.6815 22.7548 30.6811 23.6248C29.6806 24.4948 29.1804 25.7098 29.1804 27.2698H24.0006C24.0006 25.4698 24.4363 23.8648 25.3077 22.4548C26.179 21.0448 27.4215 19.9498 29.0352 19.1698C30.6811 18.3898 32.5852 17.9998 34.7474 17.9998ZM31.6492 50.0398C30.6488 50.0398 29.8097 49.7248 29.132 49.0948C28.4542 48.4648 28.1154 47.6848 28.1154 46.7548C28.1154 45.8248 28.4542 45.0448 29.132 44.4148C29.8097 43.7848 30.6488 43.4698 31.6492 43.4698C32.6174 43.4698 33.4404 43.7848 34.1181 44.4148C34.7958 45.0448 35.1347 45.8248 35.1347 46.7548C35.1347 47.6848 34.7958 48.4648 34.1181 49.0948C33.4404 49.7248 32.6174 50.0398 31.6492 50.0398Z" fill="#FABD00"/>
</svg>
