<svg width="70" height="70" viewBox="0 0 70 70" fill="none" xmlns="http://www.w3.org/2000/svg">
<g clip-path="url(#clip0_1166_888)">
<rect y="-0.00012207" width="70" height="70" rx="35" fill="#1B1E22"/>
<g filter="url(#filter0_d_1166_888)">
<path d="M41.7879 56.7647V46.6117C41.7879 45.9579 41.488 45.3571 40.9647 44.9634C40.4422 44.5698 39.7824 44.4459 39.1516 44.6269L37.0835 45.2167C36.776 45.3041 36.5009 45.4603 36.2727 45.6647C36.0445 45.4603 35.7695 45.3041 35.462 45.2167L33.3938 44.6269C32.7623 44.4459 32.1026 44.5698 31.5807 44.9634C31.0575 45.3571 30.7576 45.9579 30.7576 46.6117V56.7647L36.2727 58.338L41.7879 56.7647ZM36.9621 47.2015C36.9621 46.8959 37.1676 46.6241 37.4626 46.5401L39.5308 45.9503C39.5942 45.9324 39.6583 45.9235 39.7218 45.9235C39.8693 45.9235 40.0134 45.9709 40.1347 46.0625C40.3091 46.1939 40.4091 46.3942 40.4091 46.6117V55.7269L36.9621 56.7104V47.2015ZM35.5833 56.7097L32.1364 55.7262V46.6117C32.1364 46.3942 32.2363 46.1939 32.4107 46.0625C32.5845 45.9317 32.8051 45.8904 33.0147 45.9503L35.0828 46.5401C35.3772 46.6241 35.5826 46.8959 35.5826 47.2015V56.7097H35.5833ZM44.5455 46.611V58.7309L36.2727 61.0908L28 58.7309V47.2992C28 46.6454 28.2999 46.0446 28.8231 45.6509C28.9948 45.5215 29.1837 45.4335 29.3788 45.3633V57.6931L36.2727 59.6593L43.1667 57.6931V44.6751C43.3618 44.7453 43.5513 44.8333 43.7223 44.9627C44.2456 45.3564 44.5455 45.9572 44.5455 46.611Z" fill="#FABD00"/>
</g>
<g filter="url(#filter1_d_1166_888)">
<mask id="path-3-inside-1_1166_888" fill="white">
<path d="M53.2317 19.504L52.7209 23.7652C52.7206 23.8302 52.7358 23.8943 52.7653 23.9521L57.462 32.889C57.5595 33.0746 57.6076 33.2823 57.6017 33.4921C57.5958 33.7019 57.5361 33.9066 57.4283 34.0864C57.3206 34.2662 57.1685 34.415 56.9867 34.5183C56.805 34.6217 56.5997 34.6761 56.3909 34.6763H44.4834C44.2692 34.676 44.0588 34.6186 43.8737 34.51C43.6887 34.4014 43.5356 34.2454 43.43 34.058C43.3245 33.8706 43.2702 33.6584 43.2728 33.4431C43.2754 33.2277 43.3347 33.0169 43.4447 32.8321L48.7274 23.9602C48.7645 23.8975 48.784 23.826 48.784 23.753L48.2732 19.504"/>
</mask>
<path d="M52.7209 23.7652L51.728 23.6462L51.7211 23.7035L51.7209 23.7612L52.7209 23.7652ZM52.7653 23.9521L51.8743 24.4063L51.8801 24.4173L52.7653 23.9521ZM57.462 32.889L58.3474 32.4241L58.3472 32.4238L57.462 32.889ZM56.3909 34.6763V35.6763L56.392 35.6763L56.3909 34.6763ZM44.4834 34.6763L44.4819 35.6763H44.4834V34.6763ZM43.4447 32.8321L42.5855 32.3205L42.5853 32.3207L43.4447 32.8321ZM48.7274 23.9602L49.5867 24.4718L49.5886 24.4686L48.7274 23.9602ZM48.784 23.753L49.784 23.7533L49.7841 23.6933L49.7769 23.6337L48.784 23.753ZM52.2388 19.3849L51.728 23.6462L53.7138 23.8843L54.2246 19.623L52.2388 19.3849ZM51.7209 23.7612C51.72 23.9852 51.7725 24.2064 51.8744 24.4063L53.6562 23.4979C53.6992 23.5821 53.7212 23.6752 53.7209 23.7692L51.7209 23.7612ZM51.8801 24.4173L56.5768 33.3542L58.3472 32.4238L53.6505 23.4869L51.8801 24.4173ZM56.5766 33.3538C56.5943 33.3874 56.6032 33.4254 56.6021 33.464L58.6013 33.5203C58.612 33.1393 58.5247 32.7617 58.3474 32.4241L56.5766 33.3538ZM56.6021 33.464C56.601 33.5026 56.59 33.5399 56.5706 33.5724L58.2861 34.6004C58.4821 34.2733 58.5906 33.9013 58.6013 33.5203L56.6021 33.464ZM56.5706 33.5724C56.5511 33.6048 56.524 33.6311 56.4924 33.649L57.481 35.3876C57.8129 35.1989 58.09 34.9276 58.2861 34.6004L56.5706 33.5724ZM56.4924 33.649C56.4608 33.667 56.4255 33.6763 56.3898 33.6763L56.392 35.6763C56.774 35.6759 57.1492 35.5763 57.481 35.3876L56.4924 33.649ZM56.3909 33.6763H44.4834V35.6763H56.3909V33.6763ZM44.485 33.6763C44.4484 33.6763 44.4122 33.6665 44.38 33.6476L43.3675 35.3724C43.7054 35.5707 44.0899 35.6757 44.4819 35.6763L44.485 33.6763ZM44.38 33.6476C44.3477 33.6287 44.3204 33.6011 44.3013 33.5673L42.5588 34.5488C42.7508 34.8897 43.0297 35.1741 43.3675 35.3724L44.38 33.6476ZM44.3013 33.5673C44.2822 33.5334 44.2722 33.4946 44.2727 33.455L42.2729 33.4312C42.2682 33.8222 42.3667 34.2078 42.5588 34.5488L44.3013 33.5673ZM44.2727 33.455C44.2732 33.4154 44.2841 33.3769 44.304 33.3435L42.5853 32.3207C42.3852 32.6569 42.2775 33.0401 42.2729 33.4312L44.2727 33.455ZM44.3039 33.3437L49.5867 24.4718L47.8682 23.4486L42.5855 32.3205L44.3039 33.3437ZM49.5886 24.4686C49.7166 24.2518 49.784 24.0047 49.784 23.7533L47.784 23.7528C47.7841 23.6472 47.8124 23.5432 47.8663 23.4518L49.5886 24.4686ZM49.7769 23.6337L49.266 19.3846L47.2803 19.6233L47.7912 23.8724L49.7769 23.6337Z" fill="#FABD00" mask="url(#path-3-inside-1_1166_888)"/>
</g>
<path d="M48.7657 19.5039H47.9534C47.7181 19.5039 47.4924 19.4151 47.326 19.257C47.1596 19.0989 47.0662 18.8845 47.0662 18.661C47.0662 18.4374 47.1596 18.223 47.326 18.0649C47.4924 17.9069 47.7181 17.8181 47.9534 17.8181H53.3437C53.579 17.8181 53.8046 17.9069 53.971 18.0649C54.1374 18.223 54.2309 18.4374 54.2309 18.661C54.2309 18.8845 54.1374 19.0989 53.971 19.257C53.8046 19.4151 53.579 19.5039 53.3437 19.5039H52.6063" stroke="#FABD00" stroke-linecap="round"/>
<path d="M47.8706 26.6907C48.6768 26.4888 48.6929 26.3406 49.522 26.2471C50.1668 26.2471 51.38 27.0048 52.0672 27.0834C52.6144 27.1501 53.49 26.6907 53.49 26.6907" stroke="#FABD00" stroke-linecap="round"/>
<path d="M52.7222 32.6327C53.4275 32.6327 53.9993 32.0609 53.9993 31.3555C53.9993 30.6502 53.4275 30.0784 52.7222 30.0784C52.0169 30.0784 51.4451 30.6502 51.4451 31.3555C51.4451 32.0609 52.0169 32.6327 52.7222 32.6327Z" stroke="#FABD00" stroke-linecap="round"/>
<path d="M49.4033 30.0787C49.9676 30.0787 50.425 29.6213 50.425 29.057C50.425 28.4927 49.9676 28.0353 49.4033 28.0353C48.839 28.0353 48.3816 28.4927 48.3816 29.057C48.3816 29.6213 48.839 30.0787 49.4033 30.0787Z" stroke="#FABD00" stroke-linecap="round"/>
<g filter="url(#filter2_d_1166_888)">
<path d="M28.6679 18.4779C27.8615 17.5981 26.5505 17.5981 25.744 18.4779L12.9332 32.4542C12.8298 32.567 12.7616 32.7137 12.7395 32.8716C12.6995 33.1506 12.7499 33.5649 13.007 33.892C13.1744 34.1056 13.4936 34.3605 14.0567 34.3605C14.3834 34.3605 14.6633 34.3673 14.8259 34.3605C16.0666 34.3071 17.2749 34.0003 18.4164 33.4499C20.2023 32.5881 21.4285 31.0428 21.9737 28.9718L28.6679 21.6686C29.4744 20.7888 29.4744 19.3585 28.6679 18.4787V18.4779ZM17.8587 32.0737C16.8765 32.5475 15.8378 32.8107 14.7715 32.8573C14.6398 32.8633 14.5378 32.8633 14.5089 32.8618L19.3565 27.5731L20.5759 28.8139C20.1147 30.3299 19.2021 31.4255 17.8587 32.0737ZM27.6933 20.6045L21.3403 27.5348L20.3319 26.5091L26.7186 19.5412C26.9882 19.2472 27.4238 19.2472 27.6933 19.5412C27.9628 19.8352 27.9621 20.3112 27.6933 20.6045Z" fill="#FABD00"/>
</g>
<path d="M11.4546 38.8181H59.8182" stroke="#4B5563" stroke-width="0.5" stroke-linecap="round"/>
<path d="M36.2727 11.4544V38.1817" stroke="#4B5563" stroke-width="0.5" stroke-linecap="round"/>
</g>
<defs>
<filter id="filter0_d_1166_888" x="19" y="39.5453" width="34.5454" height="34.5454" filterUnits="userSpaceOnUse" color-interpolation-filters="sRGB">
<feFlood flood-opacity="0" result="BackgroundImageFix"/>
<feColorMatrix in="SourceAlpha" type="matrix" values="0 0 0 0 0 0 0 0 0 0 0 0 0 0 0 0 0 0 127 0" result="hardAlpha"/>
<feOffset dy="4"/>
<feGaussianBlur stdDeviation="4.5"/>
<feComposite in2="hardAlpha" operator="out"/>
<feColorMatrix type="matrix" values="0 0 0 0 0.976471 0 0 0 0 0.803922 0 0 0 0 0.270588 0 0 0 0.2 0"/>
<feBlend mode="normal" in2="BackgroundImageFix" result="effect1_dropShadow_1166_888"/>
<feBlend mode="normal" in="SourceGraphic" in2="effect1_dropShadow_1166_888" result="shape"/>
</filter>
<filter id="filter1_d_1166_888" x="34.2727" y="14.504" width="32.3293" height="33.1724" filterUnits="userSpaceOnUse" color-interpolation-filters="sRGB">
<feFlood flood-opacity="0" result="BackgroundImageFix"/>
<feColorMatrix in="SourceAlpha" type="matrix" values="0 0 0 0 0 0 0 0 0 0 0 0 0 0 0 0 0 0 127 0" result="hardAlpha"/>
<feOffset dy="4"/>
<feGaussianBlur stdDeviation="4.5"/>
<feComposite in2="hardAlpha" operator="out"/>
<feColorMatrix type="matrix" values="0 0 0 0 0.976471 0 0 0 0 0.803922 0 0 0 0 0.270588 0 0 0 0.2 0"/>
<feBlend mode="normal" in2="BackgroundImageFix" result="effect1_dropShadow_1166_888"/>
<feBlend mode="normal" in="SourceGraphic" in2="effect1_dropShadow_1166_888" result="shape"/>
</filter>
<filter id="filter2_d_1166_888" x="3.72729" y="12.8181" width="34.5454" height="34.5454" filterUnits="userSpaceOnUse" color-interpolation-filters="sRGB">
<feFlood flood-opacity="0" result="BackgroundImageFix"/>
<feColorMatrix in="SourceAlpha" type="matrix" values="0 0 0 0 0 0 0 0 0 0 0 0 0 0 0 0 0 0 127 0" result="hardAlpha"/>
<feOffset dy="4"/>
<feGaussianBlur stdDeviation="4.5"/>
<feComposite in2="hardAlpha" operator="out"/>
<feColorMatrix type="matrix" values="0 0 0 0 0.976471 0 0 0 0 0.803922 0 0 0 0 0.270588 0 0 0 0.2 0"/>
<feBlend mode="normal" in2="BackgroundImageFix" result="effect1_dropShadow_1166_888"/>
<feBlend mode="normal" in="SourceGraphic" in2="effect1_dropShadow_1166_888" result="shape"/>
</filter>
<clipPath id="clip0_1166_888">
<rect y="-0.00012207" width="70" height="70" rx="35" fill="white"/>
</clipPath>
</defs>
</svg>
